<svg version="1.2" xmlns="http://www.w3.org/2000/svg" viewBox="-73 45 385 352" width="800" height="731"><style>.a{fill:#383838}.b{fill:#fff}.c{fill:#fed348}.d{fill:#ff50c7}.e{fill:#13d2ec}</style><g style="opacity:.5"><path class="a" d="m-60.7 390h-5.2v-17.8h5.2z"/><path class="a" d="m0 390h-11.7v-23.7h11.7z"/><path class="a" d="m-34.9 390h-5.2v-16.3h5.2z"/><path class="a" d="m-24 390h-5.2v-12.6h5.2z"/><path class="a" d="m-28.5 390h-6.8v-20.4l6.8 3.5z"/><path class="a" d="m-55.5 390h-6.8v-10.6h6.8z"/><path class="a" d="m-51.1 390h-6.8v-16.9h6.8z"/><path class="a" d="m-48.7 390h-6.8v-22h6.8z"/><path class="a" d="m-38.6 390h-6.8v-22h6.8z"/><path class="a" d="m-41.4 390h-11.6v-35.7l11.6 3.8z"/><path class="a" d="m-41.4 390h-11.6v-35.7l11.6 3.8z"/><path class="a" d="m-5.8 390h-11.7v-25.6l11.7-6.3z"/><path class="a" d="m-13.3 390h-11.7v-24.8l11.7 11.8z"/><path class="a" d="m104.2 390h11.7v-23.7h-11.7z"/><path class="a" d="m95 390h11.7v-29.2l-11.7-1.7z"/><path class="a" d="m90.2 390h11.7v-25.6l-11.7 4.3z"/><path class="a" d="m139.1 390h5.2v-16.3h-5.2z"/><path class="a" d="m128.2 390h5.2v-12.6h-5.2z"/><path class="a" d="m132.7 390h6.8v-20.4l-6.8 3.5z"/><path class="a" d="m110 390h11.7v-29.8l-11.7 3.4z"/><path class="a" d="m117.5 390h11.7v-23.4l-11.7 10.4z"/><path class="a" d="m78.1 390h-11.7v-23.7h11.7z"/><path class="a" d="m87.3 390h-11.7v-34.6l11.7 3.7z"/><path class="a" d="m92.1 390h-11.7v-25.6l11.7 4.3z"/><path class="a" d="m54.1 390h-5.2v-12.6h5.2z"/><path class="a" d="m49.6 390h-6.8v-29.8l6.8 12.9z"/><path class="a" d="m39.4 390h-6.7v-31.4h6.7z"/><path class="a" d="m72.2 390h-11.6v-43.7l11.6 4.1z"/><path class="a" d="m64.7 390h-11.6v-34.2l11.6 21.2z"/></g><g style="opacity:.5"><path class="a" d="m102.9 390h-5.3v-17.8h5.3z"/><path class="a" d="m163.5 390h-11.6v-23.7h11.6z"/><path class="a" d="m172.7 390h-11.6v-34.6l11.6 3.7z"/><path class="a" d="m177.5 390h-11.6v-25.6l11.6 4.3z"/><path class="a" d="m128.7 390h-5.3v-16.3h5.3z"/><path class="a" d="m139.6 390h-5.3v-12.6h5.3z"/><path class="a" d="m135 390h-6.8v-20.4l6.8 3.5z"/><path class="a" d="m108.1 390h-6.8v-10.6h6.8z"/><path class="a" d="m112.4 390h-6.7v-16.9h6.7z"/><path class="a" d="m114.9 390h-6.8v-22h6.8z"/><path class="a" d="m124.9 390h-6.8v-22h6.8z"/><path class="a" d="m122.2 390h-11.7v-35.7l11.7 3.8z"/><path class="a" d="m122.2 390h-11.7v-35.7l11.7 3.8z"/><path class="a" d="m157.7 390h-11.7v-25.6l11.7-6.3z"/><path class="a" d="m150.2 390h-11.7v-24.8l11.7 11.8z"/><path class="a" d="m267.7 390h11.7v-23.7h-11.7z"/><path class="a" d="m258.5 390h11.7v-29.2l-11.7-1.7z"/><path class="a" d="m253.7 390h11.7v-25.6l-11.7 4.3z"/><path class="a" d="m302.6 390h5.2v-16.3h-5.2z"/><path class="a" d="m291.7 390h5.2v-12.6h-5.2z"/><path class="a" d="m296.2 390h6.8v-20.4l-6.8 3.5z"/><path class="a" d="m273.6 390h11.6v-29.8l-11.6 3.4z"/><path class="a" d="m281.1 390h11.6v-23.4l-11.6 10.4z"/><path class="a" d="m180.9 390h-5.2v-17.8h5.2z"/><path class="a" d="m241.6 390h-11.7v-23.7h11.7z"/><path class="a" d="m250.8 390h-11.7v-34.6l11.7 3.7z"/><path class="a" d="m255.6 390h-11.7v-25.6l11.7 4.3z"/><path class="a" d="m206.7 390h-5.2v-16.3h5.2z"/><path class="a" d="m217.6 390h-5.2v-12.6h5.2z"/><path class="a" d="m213.1 390h-6.8v-29.8l6.8 12.9z"/><path class="a" d="m186.1 390h-6.8v-29.2h6.8z"/><path class="a" d="m190.5 390h-6.8v-16.9h6.8z"/><path class="a" d="m192.9 390h-6.8v-22l6.8-9.4z"/><path class="a" d="m203 390h-6.8v-31.4h6.8z"/><path class="a" d="m200.2 390h-11.6v-45l11.6 3.8z"/><path class="a" d="m235.8 390h-11.7v-43.7l11.7 4.1z"/><path class="a" d="m228.3 390h-11.7v-34.2l11.7 21.2z"/></g><g style="opacity:.5"><path class="a" d="m-63 175.3h-5.2v-17.8h5.2z"/><path class="a" d="m-2.3 175.3h-11.7v-23.7h11.7z"/><path class="a" d="m6.9 175.3h-11.7v-34.7l11.7 3.8z"/><path class="a" d="m11.7 175.3h-11.7v-25.6l11.7 4.3z"/><path class="a" d="m-37.2 175.3h-5.2v-16.3h5.2z"/><path class="a" d="m-26.3 175.3h-5.2v-12.6h5.2z"/><path class="a" d="m-30.8 175.3h-6.8v-20.4l6.8 3.5z"/><path class="a" d="m-57.8 175.3h-6.8v-10.6h6.8z"/><path class="a" d="m-53.4 175.3h-6.8v-16.9h6.8z"/><path class="a" d="m-51 175.3h-6.8v-22h6.8z"/><path class="a" d="m-40.9 175.3h-6.8v-22h6.8z"/><path class="a" d="m-43.7 175.3h-11.7v-35.7l11.7 3.8z"/><path class="a" d="m-43.7 175.3h-11.7v-35.7l11.7 3.8z"/><path class="a" d="m-8.2 175.3h-11.6v-25.6l11.6-6.3z"/><path class="a" d="m-15.7 175.3h-11.6v-24.8l11.6 11.8z"/><path class="a" d="m101.9 175.3h11.6v-23.7h-11.6z"/><path class="a" d="m92.7 175.3h11.6v-29.2l-11.6-1.7z"/><path class="a" d="m87.9 175.3h11.6v-25.6l-11.6 4.3z"/><path class="a" d="m136.7 175.3h5.3v-16.3h-5.3z"/><path class="a" d="m125.8 175.3h5.2v-12.6h-5.2z"/><path class="a" d="m130.4 175.3h6.8v-20.4l-6.8 3.5z"/><path class="a" d="m107.7 175.3h11.7v-29.8l-11.7 3.4z"/><path class="a" d="m115.2 175.3h11.7v-23.4l-11.7 10.4z"/><path class="a" d="m15.1 175.3h-5.3v-17.8h5.3z"/><path class="a" d="m75.7 175.3h-11.6v-23.7h11.6z"/><path class="a" d="m85 175.3h-11.7v-34.7l11.7 3.8z"/><path class="a" d="m89.7 175.3h-11.6v-25.6l11.6 4.3z"/><path class="a" d="m40.9 175.3h-5.2v-16.3h5.2z"/><path class="a" d="m51.8 175.3h-5.2v-12.6h5.2z"/><path class="a" d="m47.2 175.3h-6.8v-29.8l6.8 12.9z"/><path class="a" d="m20.3 175.3h-6.8v-29.2h6.8z"/><path class="a" d="m24.6 175.3h-6.7v-16.9h6.7z"/><path class="a" d="m27.1 175.3h-6.8v-22l6.8-9.4z"/><path class="a" d="m37.1 175.3h-6.8v-31.4h6.8z"/><path class="a" d="m34.4 175.3h-11.7v-45l11.7 3.8z"/><path class="a" d="m69.9 175.3h-11.7v-43.7l11.7 4.1z"/><path class="a" d="m62.4 175.3h-11.7v-34.2l11.7 21.2z"/></g><g style="opacity:.5"><path class="a" d="m100.5 175.3h-5.2v-17.8h5.2z"/><path class="a" d="m161.2 175.3h-11.7v-23.7h11.7z"/><path class="a" d="m170.4 175.3h-11.7v-34.7l11.7 3.8z"/><path class="a" d="m175.2 175.3h-11.7v-25.6l11.7 4.3z"/><path class="a" d="m126.3 175.3h-5.2v-16.3h5.2z"/><path class="a" d="m137.2 175.3h-5.2v-12.6h5.2z"/><path class="a" d="m132.7 175.3h-6.8v-20.4l6.8 3.5z"/><path class="a" d="m105.7 175.3h-6.8v-10.6h6.8z"/><path class="a" d="m110.1 175.3h-6.8v-16.9h6.8z"/><path class="a" d="m112.5 175.3h-6.8v-22h6.8z"/><path class="a" d="m122.6 175.3h-6.8v-22h6.8z"/><path class="a" d="m119.8 175.3h-11.6v-35.7l11.6 3.8z"/><path class="a" d="m119.8 175.3h-11.6v-35.7l11.6 3.8z"/><path class="a" d="m155.4 175.3h-11.7v-25.6l11.7-6.3z"/><path class="a" d="m147.9 175.3h-11.7v-24.8l11.7 11.8z"/><path class="a" d="m265.4 175.3h11.7v-23.7h-11.7z"/><path class="a" d="m256.2 175.3h11.7v-29.2l-11.7-1.7z"/><path class="a" d="m251.4 175.3h11.7v-25.6l-11.7 4.3z"/><path class="a" d="m300.3 175.3h5.2v-16.3h-5.2z"/><path class="a" d="m289.4 175.3h5.2v-12.6h-5.2z"/><path class="a" d="m293.9 175.3h6.8v-20.4l-6.8 3.5z"/><path class="a" d="m271.2 175.3h11.7v-29.8l-11.7 3.4z"/><path class="a" d="m278.7 175.3h11.7v-23.4l-11.7 10.4z"/><path class="a" d="m178.6 175.3h-5.2v-17.8h5.2z"/><path class="a" d="m239.3 175.3h-11.7v-23.7h11.7z"/><path class="a" d="m248.5 175.3h-11.7v-34.7l11.7 3.8z"/><path class="a" d="m253.3 175.3h-11.7v-25.6l11.7 4.3z"/><path class="a" d="m204.4 175.3h-5.2v-16.3h5.2z"/><path class="a" d="m215.3 175.3h-5.2v-12.6h5.2z"/><path class="a" d="m210.8 175.3h-6.8v-29.8l6.8 12.9z"/><path class="a" d="m183.8 175.3h-6.8v-29.2h6.8z"/><path class="a" d="m188.2 175.3h-6.8v-16.9h6.8z"/><path class="a" d="m190.6 175.3h-6.8v-22l6.8-9.4z"/><path class="a" d="m200.6 175.3h-6.7v-31.4h6.7z"/><path class="a" d="m197.9 175.3h-11.7v-45l11.7 3.8z"/><path class="a" d="m233.4 175.3h-11.6v-43.7l11.6 4.1z"/><path class="a" d="m225.9 175.3h-11.6v-34.2l11.6 21.2z"/></g><g style="opacity:.5"><path class="a" d="m141.7 282.9h5.3v-17.8h-5.3z"/><path class="a" d="m81.1 282.9h11.6v-23.7h-11.6z"/><path class="a" d="m71.8 282.9h11.7v-34.6l-11.7 3.7z"/><path class="a" d="m67 282.9h11.7v-25.6l-11.7 4.3z"/><path class="a" d="m115.9 282.9h5.2v-16.3h-5.2z"/><path class="a" d="m105 282.9h5.2v-12.6h-5.2z"/><path class="a" d="m109.6 282.9h6.8v-20.4l-6.8 3.5z"/><path class="a" d="m136.5 282.9h6.8v-10.6h-6.8z"/><path class="a" d="m132.1 282.9h6.8v-16.9h-6.8z"/><path class="a" d="m129.7 282.9h6.8v-22h-6.8z"/><path class="a" d="m119.7 282.9h6.8v-22h-6.8z"/><path class="a" d="m122.4 282.9h11.7v-35.7l-11.7 3.8z"/><path class="a" d="m122.4 282.9h11.7v-35.7l-11.7 3.8z"/><path class="a" d="m86.9 282.9h11.7v-25.6l-11.7-6.3z"/><path class="a" d="m94.4 282.9h11.7v-24.8l-11.7 11.8z"/><path class="a" d="m-23.2 282.9h-11.6v-23.7h11.6z"/><path class="a" d="m-13.9 282.9h-11.7v-29.2l11.7-1.7z"/><path class="a" d="m-9.1 282.9h-11.7v-25.6l11.7 4.3z"/><path class="a" d="m-58 282.9h-5.2v-16.3h5.2z"/><path class="a" d="m-47.1 282.9h-5.2v-12.6h5.2z"/><path class="a" d="m-51.7 282.9h-6.8v-20.4l6.8 3.5z"/><path class="a" d="m-29 282.9h-11.7v-29.8l11.7 3.4z"/><path class="a" d="m-36.5 282.9h-11.7v-23.4l11.7 10.4z"/><path class="a" d="m63.7 282.9h5.2v-17.8h-5.2z"/><path class="a" d="m3 282.9h11.7v-23.7h-11.7z"/><path class="a" d="m-6.2 282.9h11.6v-34.6l-11.6 3.7z"/><path class="a" d="m-11 282.9h11.6v-25.6l-11.6 4.3z"/><path class="a" d="m37.8 282.9h5.3v-16.3h-5.3z"/><path class="a" d="m26.9 282.9h5.3v-12.6h-5.3z"/><path class="a" d="m31.5 282.9h6.8v-29.8l-6.8 12.9z"/><path class="a" d="m58.5 282.9h6.7v-29.2h-6.7z"/><path class="a" d="m54.1 282.9h6.8v-16.9h-6.8z"/><path class="a" d="m51.7 282.9h6.8v-22l-6.8-9.4z"/><path class="a" d="m41.6 282.9h6.8v-31.4h-6.8z"/><path class="a" d="m44.4 282.9h11.6v-45l-11.6 3.8z"/><path class="a" d="m8.8 282.9h11.7v-43.7l-11.7 4.1z"/><path class="a" d="m16.3 282.9h11.7v-34.2l-11.7 21.2z"/></g><g style="opacity:.5"><path class="a" d="m107.5 282.9h-5.2v-17.8h5.2z"/><path class="a" d="m168.2 282.9h-11.7v-23.7h11.7z"/><path class="a" d="m177.4 282.9h-11.7v-34.6l11.7 3.7z"/><path class="a" d="m182.2 282.9h-11.7v-25.6l11.7 4.3z"/><path class="a" d="m133.3 282.9h-5.2v-16.3h5.2z"/><path class="a" d="m144.2 282.9h-5.2v-12.6h5.2z"/><path class="a" d="m139.7 282.9h-6.9v-20.4l6.9 3.5z"/><path class="a" d="m112.7 282.9h-6.8v-10.6h6.8z"/><path class="a" d="m117.1 282.9h-6.8v-16.9h6.8z"/><path class="a" d="m119.5 282.9h-6.8v-22h6.8z"/><path class="a" d="m129.5 282.9h-6.7v-22h6.7z"/><path class="a" d="m126.8 282.9h-11.7v-35.7l11.7 3.8z"/><path class="a" d="m126.8 282.9h-11.7v-35.7l11.7 3.8z"/><path class="a" d="m162.3 282.9h-11.6v-25.6l11.6-6.3z"/><path class="a" d="m154.8 282.9h-11.6v-24.8l11.6 11.8z"/><path class="a" d="m272.4 282.9h11.6v-23.7h-11.6z"/><path class="a" d="m263.2 282.9h11.6v-29.2l-11.6-1.7z"/><path class="a" d="m258.4 282.9h11.6v-25.6l-11.6 4.3z"/><path class="a" d="m307.2 282.9h5.2v-16.3h-5.2z"/><path class="a" d="m296.3 282.9h5.2v-12.6h-5.2z"/><path class="a" d="m300.9 282.9h6.8v-20.4l-6.8 3.5z"/><path class="a" d="m278.2 282.9h11.7v-29.8l-11.7 3.4z"/><path class="a" d="m285.7 282.9h11.7v-23.4l-11.7 10.4z"/><path class="a" d="m185.6 282.9h-5.3v-17.8h5.3z"/><path class="a" d="m246.2 282.9h-11.6v-23.7h11.6z"/><path class="a" d="m255.4 282.9h-11.6v-34.6l11.6 3.7z"/><path class="a" d="m260.2 282.9h-11.6v-25.6l11.6 4.3z"/><path class="a" d="m211.4 282.9h-5.2v-16.3h5.2z"/><path class="a" d="m222.3 282.9h-5.2v-12.6h5.2z"/><path class="a" d="m217.7 282.9h-6.8v-29.8l6.8 12.9z"/><path class="a" d="m190.8 282.9h-6.8v-29.2h6.8z"/><path class="a" d="m195.1 282.9h-6.7v-16.9h6.7z"/><path class="a" d="m197.6 282.9h-6.8v-22l6.8-9.4z"/><path class="a" d="m207.6 282.9h-6.8v-31.4h6.8z"/><path class="a" d="m204.9 282.9h-11.7v-45l11.7 3.8z"/><path class="a" d="m240.4 282.9h-11.7v-43.7l11.7 4.1z"/><path class="a" d="m232.9 282.9h-11.7v-34.2l11.7 21.2z"/></g><path class="b" d="m296.3 317.1v-6.6h-13.6v7.3h-2.2l1.6 54.6h15.2v-54.4z"/><path class="a" d="m293.8 310.9h-8.8v-4.7h8.8z"/><path class="a" d="m290 311.2h-1.2v-11.8h1.2z"/><path class="a" d="m279.7 316.5v73.5h19.3v-73.5zm15.6 46.3h-12v-1.7h12zm0-6.8h-12v-1.6h12zm0-6.9h-12v-1.6h12zm0-6.9h-12v-1.6h12zm0-6.8h-12v-1.6h12zm0-6.9h-12v-1.6h12zm0-6.9h-12v-1.6h12z"/><path class="a" d="m282.1 309.4v8.6h14.6v-8.6zm3.5 4h-2.4v-2.5h2.4zm10 0h-2.5v-2.4h2.5z"/><path class="b" d="m73.4 279.9h-29.1v-53.3h29.1z"/><path class="a" d="m70 224.4v-20.7h-23.1v20.7h-4.5v58.5h32.1v-58.5zm1.1 48.9h-25.3v-1.8h25.3zm0-10.5h-25.3v-1.7h25.3zm0-10.5h-25.3v-1.8h25.3zm0-10.5h-25.3v-1.8h25.3zm0-10.5h-25.3v-1.8h25.3z"/><path class="a" d="m58.5 191.8l-10.7 16.6h21.3z"/><path class="a" d="m59 206.9h-1.1v-25.7h1.1z"/><path class="a" d="m256.5 129.4l-16.2 45.9h32.4zm0 2.5l15 42.4h-30z"/><path class="a" d="m262 129.1c0 3-2.4 5.4-5.4 5.4-3 0-5.4-2.4-5.4-5.4 0-3 2.4-5.5 5.4-5.5 3 0 5.4 2.5 5.4 5.5z"/><path class="a" d="m256.6 167.1c-20.9 0-38-17.1-38-38 0-21 17.1-38 38-38 21 0 38 17 38 38 0 20.9-17 38-38 38zm0-73.9c-19.8 0-35.9 16.1-35.9 35.9 0 19.8 16.1 35.9 35.9 35.9 19.8 0 35.9-16.1 35.9-35.9 0-19.8-16.1-35.9-35.9-35.9z"/><path class="a" d="m256.6 162.6c-18.5 0-33.6-15-33.6-33.5 0-18.5 15.1-33.6 33.6-33.6 18.5 0 33.6 15.1 33.6 33.6 0 18.5-15.1 33.5-33.6 33.5zm0-66.1c-18 0-32.6 14.6-32.6 32.6 0 17.9 14.6 32.6 32.6 32.6 18 0 32.6-14.7 32.6-32.6 0-18-14.6-32.6-32.6-32.6z"/><path class="a" d="m258.5 89.4c0 1-0.9 1.9-1.9 1.9-1 0-1.9-0.9-1.9-1.9 0-1 0.9-1.9 1.9-1.9 1 0 1.9 0.9 1.9 1.9z"/><path class="a" d="m256.6 92.7l-1.4 3.1h2.8z"/><path class="a" d="m256.8 129.1h-0.4v-39.7h0.4z"/><path class="a" d="m250.2 89.9c0.2 1-0.4 2-1.5 2.2-1 0.2-2-0.4-2.2-1.4-0.2-1.1 0.4-2.1 1.5-2.3 1-0.2 2 0.5 2.2 1.5z"/><path class="a" d="m249 93.5l-0.7 3.3 2.8-0.6z"/><path class="a" d="m256.8 129l-0.4 0.1-8.2-38.8 0.3-0.1z"/><path class="a" d="m242.2 92.1c0.4 0.9 0 2-1 2.5-0.9 0.4-2-0.1-2.5-1-0.4-1 0.1-2.1 1-2.5 1-0.4 2.1 0 2.5 1z"/><path class="a" d="m241.8 95.8l-0.1 3.4 2.7-1.1z"/><path class="a" d="m256.8 129l-0.4 0.1-16.1-36.2 0.3-0.1z"/><path class="a" d="m234.8 95.9c0.6 0.8 0.4 2-0.4 2.6-0.8 0.6-2 0.4-2.6-0.4-0.6-0.9-0.5-2 0.4-2.7 0.8-0.6 2-0.4 2.6 0.5z"/><path class="a" d="m235.2 99.6l0.7 3.4 2.3-1.7z"/><path class="a" d="m256.8 128.9l-0.4 0.3-23.3-32.1 0.3-0.2z"/><path class="a" d="m228.4 101.1c0.8 0.7 0.8 1.9 0.1 2.7-0.7 0.7-1.9 0.8-2.6 0.1-0.8-0.7-0.9-1.9-0.2-2.6 0.7-0.8 1.9-0.9 2.7-0.2z"/><path class="a" d="m229.6 104.7l1.3 3.2 1.9-2.2z"/><path class="a" d="m256.7 128.9l-0.2 0.3-29.5-26.5 0.2-0.3z"/><path class="a" d="m223.2 107.6c0.9 0.5 1.2 1.7 0.7 2.6-0.5 0.9-1.7 1.2-2.6 0.7-0.9-0.6-1.2-1.7-0.7-2.6 0.5-0.9 1.7-1.2 2.6-0.7z"/><path class="a" d="m225.1 110.9l1.9 2.8 1.5-2.5z"/><path class="a" d="m256.7 128.9l-0.2 0.3-34.4-19.8 0.2-0.3z"/><path class="a" d="m219.4 115c1 0.3 1.6 1.4 1.3 2.4-0.4 1-1.4 1.5-2.4 1.2-1-0.3-1.5-1.4-1.2-2.4 0.3-1 1.4-1.5 2.3-1.2z"/><path class="a" d="m222 117.8l2.5 2.3 0.9-2.7z"/><path class="a" d="m256.6 128.9l-0.1 0.3-37.7-12.2 0.1-0.4z"/><path class="a" d="m217.3 123c1.1 0.1 1.8 1.1 1.7 2.1-0.1 1-1 1.8-2.1 1.7-1-0.1-1.7-1.1-1.6-2.1 0.1-1 1-1.8 2-1.7z"/><path class="a" d="m220.4 125.3l2.9 1.7 0.3-2.9z"/><path class="a" d="m256.6 128.9v0.3l-39.5-4.1 0.1-0.4z"/><path class="a" d="m216.9 131.3c1.1-0.1 2 0.7 2.1 1.7 0.1 1-0.6 2-1.7 2.1-1 0.1-1.9-0.7-2-1.7-0.1-1 0.6-2 1.6-2.1z"/><path class="a" d="m220.4 132.9l3.2 1.1-0.3-2.9z"/><path class="a" d="m256.6 128.9v0.3l-39.4 4.2-0.1-0.4z"/><path class="a" d="m218.3 139.5c1-0.3 2 0.2 2.3 1.2 0.4 1-0.2 2.1-1.2 2.4-1 0.3-2-0.2-2.3-1.2-0.4-1 0.2-2.1 1.2-2.4z"/><path class="a" d="m222 140.3l3.4 0.4-0.9-2.7z"/><path class="a" d="m256.5 128.9l0.1 0.3-37.7 12.3-0.1-0.4z"/><path class="a" d="m221.3 147.3c0.9-0.6 2-0.3 2.6 0.6 0.5 0.9 0.2 2.1-0.7 2.6-0.9 0.5-2.1 0.2-2.6-0.7-0.5-0.9-0.2-2 0.7-2.5z"/><path class="a" d="m225.1 147.2l3.4-0.3-1.5-2.4z"/><path class="a" d="m256.5 128.9l0.2 0.3-34.4 19.9-0.2-0.4z"/><path class="a" d="m225.8 154.2c0.8-0.7 2-0.6 2.7 0.1 0.7 0.8 0.6 2-0.1 2.7-0.8 0.7-2 0.6-2.7-0.1-0.7-0.8-0.6-2 0.1-2.7z"/><path class="a" d="m229.5 153.4l3.3-1-1.9-2.1z"/><path class="a" d="m256.4 128.9l0.3 0.3-29.5 26.5-0.2-0.2z"/><path class="a" d="m231.7 160c0.6-0.8 1.8-1 2.7-0.4 0.8 0.6 1 1.8 0.4 2.7-0.6 0.8-1.8 1-2.7 0.4-0.8-0.6-1-1.8-0.4-2.7z"/><path class="a" d="m235.2 158.5l3-1.7-2.4-1.7z"/><path class="a" d="m256.4 128.9l0.3 0.3-23.3 32.1-0.3-0.3z"/><path class="a" d="m238.7 164.5c0.4-0.9 1.6-1.3 2.5-0.9 0.9 0.4 1.4 1.5 1 2.5-0.5 0.9-1.6 1.3-2.5 0.9-1-0.4-1.4-1.5-1-2.5z"/><path class="a" d="m241.8 162.3l2.5-2.2-2.6-1.2z"/><path class="a" d="m256.4 129l0.3 0.1-16.1 36.3-0.3-0.2z"/><path class="a" d="m246.5 167.5c0.2-1 1.2-1.7 2.2-1.5 1 0.2 1.7 1.2 1.5 2.3-0.3 1-1.3 1.6-2.3 1.4-1-0.2-1.6-1.2-1.4-2.2z"/><path class="a" d="m249 164.6l2.1-2.7-2.9-0.6z"/><path class="a" d="m256.4 129l0.4 0.1-8.3 38.8-0.4-0.1z"/><path class="a" d="m254.7 168.7c0-1 0.8-1.8 1.9-1.8 1 0 1.8 0.8 1.8 1.8 0 1.1-0.8 1.9-1.8 1.9-1.1 0-1.9-0.8-1.9-1.9z"/><path class="a" d="m256.6 165.4l1.4-3h-2.9z"/><path class="a" d="m256.4 129.1h0.4v39.6h-0.4z"/><path class="a" d="m263 168.3c-0.2-1.1 0.4-2.1 1.4-2.3 1-0.2 2 0.5 2.3 1.5 0.2 1-0.5 2-1.5 2.2-1 0.2-2-0.4-2.2-1.4z"/><path class="a" d="m264.1 164.6l0.8-3.3-2.8 0.6z"/><path class="a" d="m256.4 129.1l0.4-0.1 8.2 38.8-0.4 0.1z"/><path class="a" d="m271 166.1c-0.4-1 0-2.1 0.9-2.5 1-0.4 2.1 0 2.5 0.9 0.4 1 0 2.1-0.9 2.5-1 0.5-2.1 0-2.5-0.9z"/><path class="a" d="m271.4 162.3v-3.4l-2.6 1.2z"/><path class="a" d="m256.4 129.2l0.3-0.2 16.2 36.2-0.4 0.2z"/><path class="a" d="m278.4 162.3c-0.7-0.9-0.5-2 0.4-2.7 0.8-0.6 2-0.4 2.6 0.5 0.6 0.8 0.4 2-0.4 2.6-0.9 0.6-2 0.4-2.6-0.4z"/><path class="a" d="m277.9 158.5l-0.6-3.3-2.3 1.7z"/><path class="a" d="m256.4 129.2l0.3-0.2 23.3 32.1-0.3 0.2z"/><path class="a" d="m284.8 157c-0.8-0.7-0.8-1.9-0.2-2.6 0.7-0.8 1.9-0.9 2.7-0.2 0.8 0.7 0.8 1.9 0.1 2.7-0.7 0.8-1.8 0.8-2.6 0.1z"/><path class="a" d="m283.6 153.4l-1.3-3.1-2 2.1z"/><path class="a" d="m256.4 129.2l0.3-0.3 29.5 26.6-0.3 0.3z"/><path class="a" d="m290 150.5c-0.9-0.5-1.2-1.6-0.7-2.5 0.5-0.9 1.7-1.2 2.6-0.7 0.9 0.5 1.2 1.7 0.7 2.6-0.6 0.9-1.7 1.2-2.6 0.6z"/><path class="a" d="m288.1 147.3l-2-2.8-1.4 2.5z"/><path class="a" d="m256.5 129.3l0.2-0.4 34.3 19.8-0.2 0.4z"/><path class="a" d="m293.7 143.1c-1-0.3-1.5-1.3-1.2-2.3 0.3-1 1.4-1.6 2.4-1.2 1 0.3 1.5 1.3 1.2 2.3-0.3 1-1.4 1.6-2.4 1.2z"/><path class="a" d="m291.2 140.3l-2.5-2.3-0.9 2.7z"/><path class="a" d="m256.5 129.3l0.1-0.4 37.8 12.3-0.2 0.3z"/><path class="a" d="m295.8 135.1c-1-0.1-1.8-1-1.6-2.1 0.1-1 1-1.7 2-1.6 1.1 0.1 1.8 1 1.7 2-0.1 1.1-1 1.8-2.1 1.7z"/><path class="a" d="m292.8 132.9l-3-1.8-0.3 2.9z"/><path class="a" d="m256.6 129.3v-0.4l39.4 4.1v0.4z"/><path class="a" d="m296.2 126.8c-1 0.1-1.9-0.6-2-1.7-0.2-1 0.6-1.9 1.6-2 1.1-0.1 2 0.6 2.1 1.6 0.1 1.1-0.6 2-1.7 2.1z"/><path class="a" d="m292.8 125.3l-3.3-1.1 0.3 2.8z"/><path class="a" d="m256.6 129.3v-0.4l39.4-4.1v0.3z"/><path class="a" d="m294.9 118.6c-1 0.3-2.1-0.2-2.4-1.2-0.3-1 0.2-2 1.2-2.4 1-0.3 2.1 0.3 2.4 1.3 0.3 0.9-0.2 2-1.2 2.3z"/><path class="a" d="m291.2 117.8l-3.4-0.4 0.9 2.8z"/><path class="a" d="m256.6 129.3l-0.1-0.4 37.7-12.3 0.2 0.4z"/><path class="a" d="m291.9 110.9c-0.9 0.5-2.1 0.2-2.6-0.7-0.5-0.9-0.2-2.1 0.7-2.6 0.9-0.5 2.1-0.2 2.6 0.7 0.5 0.9 0.2 2.1-0.7 2.6z"/><path class="a" d="m288.1 110.9l-3.4 0.3 1.4 2.5z"/><path class="a" d="m256.7 129.3l-0.2-0.4 34.3-19.8 0.2 0.3z"/><path class="a" d="m287.3 103.9c-0.7 0.7-1.9 0.7-2.6-0.1-0.7-0.8-0.7-2 0.1-2.7 0.8-0.6 2-0.6 2.7 0.2 0.7 0.8 0.6 1.9-0.2 2.6z"/><path class="a" d="m283.6 104.7l-3.2 1 1.9 2.2z"/><path class="a" d="m256.7 129.2l-0.2-0.3 29.4-26.5 0.3 0.3z"/><path class="a" d="m281.4 98.1c-0.6 0.8-1.8 1-2.6 0.4-0.8-0.6-1-1.8-0.4-2.6 0.6-0.9 1.8-1 2.6-0.4 0.9 0.6 1 1.8 0.4 2.6z"/><path class="a" d="m278 99.7l-3 1.6 2.3 1.7z"/><path class="a" d="m256.8 129.2l-0.4-0.2 23.4-32.1 0.3 0.2z"/><path class="a" d="m274.5 93.6c-0.5 1-1.6 1.4-2.5 1-1-0.5-1.4-1.6-1-2.5 0.4-1 1.5-1.4 2.5-1 0.9 0.4 1.4 1.6 1 2.5z"/><path class="a" d="m271.4 95.9l-2.6 2.2 2.7 1.2z"/><path class="a" d="m256.8 129.2l-0.4-0.2 16.2-36.2 0.3 0.1z"/><path class="a" d="m266.7 90.7c-0.2 1-1.2 1.6-2.2 1.4-1.1-0.2-1.7-1.2-1.5-2.2 0.2-1 1.2-1.7 2.2-1.5 1.1 0.3 1.7 1.3 1.5 2.3z"/><path class="a" d="m264.2 93.5l-2.1 2.7 2.8 0.6z"/><path class="a" d="m256.8 129.1l-0.4-0.1 8.3-38.8 0.3 0.1z"/><path class="b" d="m1 166.9h-50.4v-41h50.4z"/><path class="a" d="m-42.7 91.6l-5.7 34.1h11.3z"/><path class="a" d="m-50.4 124.4v50.9h15.3v-50.9zm5.9 18.4h-3v-13.4c0-0.8 0.7-1.5 1.5-1.5 0.9 0 1.5 0.7 1.5 1.5zm3.2 14h-3v-7.8c0-0.8 0.7-1.5 1.5-1.5 0.8 0 1.5 0.7 1.5 1.5zm3.1-13.9h-3v-13.3c0-0.9 0.7-1.5 1.5-1.5 0.9 0 1.5 0.6 1.5 1.5z"/><path class="a" d="m-5.9 91.6l-5.7 34.1h11.3z"/><path class="a" d="m-13.6 124.4v50.9h15.3v-50.9zm5.9 18.4h-3v-13.4c0-0.8 0.7-1.5 1.5-1.5 0.9 0 1.5 0.7 1.5 1.5zm3.2 14h-3v-7.8c0-0.8 0.7-1.5 1.5-1.5 0.8 0 1.5 0.7 1.5 1.5zm3.1-13.9h-3v-13.3c0-0.9 0.7-1.5 1.5-1.5 0.9 0 1.5 0.6 1.5 1.5z"/><path class="a" d="m-39.6 125.7l15.3-15.2 15.2 15.2"/><path class="a" d="m-36.7 125v50.3h25.1v-50.3zm18.2 29.9h-11.6v-4.6h11.6zm0-7.4h-11.6v-13.7c0-3.2 2.6-5.8 5.8-5.8 3.2 0 5.8 2.6 5.8 5.8z"/><path class="a" d="m-24.3 95.9l-2.2 19.2h4.3z"/><path class="b" d="m111.8 371.5h-107.8v-4.3h107.8z"/><path class="a" d="m7.2 371.1h-9v-5h9z"/><path class="a" d="m7.2 390h-9v-14.9h9z"/><path class="a" d="m6.6 376h-7.7v-6.1h7.7z"/><path class="a" d="m63.1 371.1h-9v-5h9z"/><path class="a" d="m63.1 390h-9v-14.9h9z"/><path class="a" d="m62.4 376h-7.7v-6.1h7.7z"/><path class="a" d="m3.4 366.8v3.6h54.5v-3.6zm7.3 2.6h-1.6v-1.6h1.6zm4.2 0h-1.6v-1.6h1.6zm4.1 0h-1.6v-1.7h1.6zm4.2 0h-1.6v-1.6h1.6zm4.1 0h-1.6v-1.6h1.6zm4.2 0h-1.6v-1.6h1.6zm4.2 0h-1.7v-1.6h1.7zm4.1 0h-1.6v-1.6h1.6zm4.2 0h-1.7v-1.6h1.7zm4.1 0h-1.6v-1.7h1.6zm4.2 0h-1.7v-1.6h1.7z"/><path class="a" d="m2.7 369.6v15.6c0 0 8-10.3 27.9-10.3 20 0 27.3 10.3 27.3 10.3v-15.6z"/><path class="a" d="m5.6 370.4h-5.7v-7.2h5.7z"/><path class="a" d="m61.4 370.4h-5.7v-7.2h5.7z"/><path class="a" d="m119.2 371.1h-9v-5h9z"/><path class="a" d="m119.2 390h-9v-14.9h9z"/><path class="a" d="m118.6 376h-7.7v-6.1h7.7z"/><path class="a" d="m59.5 366.8v3.6h54.6v-3.6zm7.3 2.6h-1.6v-1.6h1.6zm4.2 0h-1.7v-1.6h1.7zm4.1 0h-1.6v-1.7h1.6zm4.2 0h-1.7v-1.6h1.7zm4.1 0h-1.6v-1.6h1.6zm4.2 0h-1.7v-1.6h1.7zm4.1 0h-1.6v-1.6h1.6zm4.2 0h-1.6v-1.6h1.6zm4.1 0h-1.6v-1.6h1.6zm4.2 0h-1.6v-1.7h1.6zm4.1 0h-1.6v-1.6h1.6z"/><path class="a" d="m58.9 369.6v15.6c0 0 7.9-10.3 27.9-10.3 20 0 27.3 10.3 27.3 10.3v-15.6z"/><path class="a" d="m117.6 370.4h-5.8v-7.2h5.8z"/><path class="b" d="m203.6 248.1v1.2h-43.9v-1.2h-23.2v33.1h23.2v-21.4h43.9v21.4h23.1v-33.1z"/><path class="a" d="m182.2 229.9c-10.1 0-18.2 8.1-18.2 18.2h36.3c0-10.1-8.1-18.2-18.1-18.2z"/><path class="a" d="m186.4 234.1h-8.4v-8.4h8.4z"/><path class="a" d="m183 229.7h-1.6v-12.7h1.6z"/><path class="a" d="m155.5 282.9h2.2v-44.1h-2.2z"/><path class="a" d="m135.4 282.9h2.2v-44.1h-2.2z"/><path class="a" d="m137.5 246.2v36.7h19.9v-36.7zm13.3 33.7h-8.5v-7c0-2.4 1.9-4.3 4.2-4.3 2.4 0 4.3 1.9 4.3 4.3zm2.3-16h-13.2v-2.1h13.2zm0-6.1h-13.2v-2.1h13.2zm0-6.1h-13.2v-2.2h13.2z"/><path class="a" d="m226.7 282.9h2.2v-44.1h-2.2z"/><path class="a" d="m206.6 282.9h2.3v-44.1h-2.3z"/><path class="a" d="m208.7 246.2v36.7h19.9v-36.7zm13.3 33.7h-8.5v-7c0-2.4 1.9-4.3 4.3-4.3 2.3 0 4.2 1.9 4.2 4.3zm2.4-16h-13.2v-2.1h13.2zm0-6.1h-13.2v-2.1h13.2zm0-6.1h-13.2v-2.2h13.2z"/><path class="a" d="m156.6 246.2v36.7h15.3v-9.4c0-5.7 4.6-10.3 10.3-10.3 5.6 0 10.2 4.6 10.2 10.3v9.4h15.3v-36.7zm12.1 8.7h-4.7v-4.7h4.7zm7.9 0h-4.7v-4.8h4.7zm8 0h-4.8v-4.7h4.8zm7.9 0h-4.8v-4.7h4.8zm7.9 0h-4.7v-4.8h4.7z"/><path class="b" d="m59.1 72.4v-9.4h-19.4v10.4h-3.1l2.2 77.7h21.6v-77.4z"/><path class="a" d="m55.5 63.6h-12.6v-6.8h12.6z"/><path class="a" d="m50.1 64h-1.7v-16.8h1.7z"/><path class="a" d="m35.5 71.6v103.7h27.4v-103.7zm22.2 65.7h-17.1v-2.3h17.1zm0-9.7h-17.1v-2.3h17.1zm0-9.8h-17.1v-2.3h17.1zm0-9.7h-17.1v-2.3h17.1zm0-9.8h-17.1v-2.3h17.1zm0-9.7h-17.1v-2.3h17.1zm0-9.8h-17.1v-2.3h17.1z"/><path class="a" d="m38.8 61.5v12.2h20.8v-12.2zm5 5.6h-3.5v-3.5h3.5zm14.2 0h-3.5v-3.4h3.5z"/><path class="c" d="m93.7 175l-0.3-97.5h-27.1l-30.9 51.9-31.7-51.9h-27.1v97.5h30v-42.9l21.2 34.1h14.4l21.2-35.6 0.3 44.4zm48.2-24.8v-12.8h41.2v-23.7h-41.2v-11.4h47v-24.8h-79.3v97.5h81.1v-24.8zm61.4 24.8h76.9v-25.5h-44v-72h-32.9z"/><path class="d" d="m24.5 185c23.5 0 38.7 9.8 38.7 24.7 0 9.6-6.4 17.8-16.4 20.9 11.7 2.6 19.4 12.4 19.4 24.7 0 16.7-15.5 27.4-39.3 27.4h-51.9v-97.7zm-17.2 37.7h15.4c4.5 0 7.4-2.8 7.4-7.1 0-4.2-2.9-6.9-7.4-6.9h-15.4zm0 36.4h15.4c6 0 9.9-3.1 9.9-7.8 0-4.3-3.9-7.1-9.9-7.1h-15.4z"/><path class="d" d="m178.3 233.8c0 29-22.6 48.5-53.6 48.5-31.1 0-53.7-19.4-53.7-48.5 0-29 22.6-49.7 53.7-49.7 31 0 53.6 20.9 53.6 49.7zm-74.1 0.1c0 13.4 9.8 23.3 20.9 23.3 11.1 0 20.1-9.9 20.1-23.3 0-13.3-9-22.9-20.1-22.9-11.3 0-20.9 9.6-20.9 22.9z"/><path class="d" d="m279.7 241.3c0 25.9-18.2 41-46.5 41-28.4 0-47.2-15.1-47.2-41v-56.3h32.3v56.3c0 9.6 7 15.9 15.1 15.9 7.9 0 14-6.1 14-15.9v-56.3h32.3z"/><path class="e" d="m34.4 390h35.1l-20.5-30.1c11.7-6 18.4-16.6 18.4-30.6 0-22.6-17.3-36.8-44.4-36.8h-47v97.5h32.9v-24.5h8.9zm-0.1-60.8c0 7.1-4.3 11.5-13.4 11.5h-12v-22.9h12c9.1 0 13.4 4.3 13.4 11.4zm109.6-36.8v44.4l-37-44.4h-27.1v97.6h32.1v-44.3l37 44.3h27.1v-97.6zm80.2 72.8v-12.8h41.3v-23.7h-41.3v-11.5h47v-24.8h-79.3v97.6h81.1v-24.8z"/><path class="b" d="m102.2 175.1h-17.8v-48.4h17.8z"/><path class="a" d="m110.1 118.1v27.2h-4.4v-20.5h-7.7l-11-8.9v-7.5h-0.8v6.8 9.6h-3.1v50.5h14.1 8.5 7.5v-29.3-0.7-27.2zm-17.9 40.1h-7v-2h7zm0-6.5h-7v-2.1h7zm0-6.5h-7v-2.1h7zm0-6.5h-7v-2h7zm0-6.6h-7v-2h7zm17.9 37.5h-4.4v-2.9h4.4zm0-6h-4.4v-2.9h4.4zm0-6h-4.4v-2.9h4.4zm0-5.9h-4.4v-3h4.4z"/><path class="a" d="m306.9 252.4c-0.7-4.5-4.2-8-8.7-8.6v-4.5h-1.1v-5.5h-0.9v5.5h-1v4.5c-3.8 0.5-6.9 3.1-8.2 6.6v-7.1h-0.1c-0.9-5.8-5.5-10.4-11.3-11.2v-5.8h-1.3v-7.1h-1.2v7.1h-1.4v5.8c-5.8 0.8-10.3 5.4-11.2 11.2h-0.2v7.1c-1.2-3.5-4.3-6.1-8.1-6.6v-4.5h-1.1v-5.5h-0.9v5.5h-1v4.5c-4.5 0.6-8 4.1-8.7 8.6h-0.1v30.5h19.9 0.7 25.4 0.6 20v-30.5zm-29.4 2.1c0 2.1-1.7 3.8-3.8 3.8-2.1 0-3.8-1.7-3.8-3.8 0-2 1.7-3.7 3.8-3.7 2.1 0 3.8 1.7 3.8 3.7zm-24.5 20h-4.6v-5.4c0-1.3 1-2.3 2.3-2.3 1.2 0 2.3 1 2.3 2.3zm0-10.9h-4.6v-5.4c0-1.3 1-2.3 2.3-2.3 1.2 0 2.3 1 2.3 2.3zm29 16.1h-16.6v-6.3c0-4.6 3.7-8.3 8.3-8.3 4.6 0 8.3 3.7 8.3 8.3zm17-5.2h-4.6v-5.4c0-1.3 1.1-2.3 2.3-2.3 1.3 0 2.3 1 2.3 2.3zm0-10.9h-4.6v-5.4c0-1.3 1.1-2.3 2.3-2.3 1.3 0 2.3 1 2.3 2.3z"/><path class="a" d="m281.1 273.5v-10.6h-0.6v10.6h-2.2v-10.6h-0.6v10.6h-2.2v-10.6h-0.6v10.6h-2.2v-10.6h-0.6v10.6h-2.2v-10.6h-0.6v10.6h-2.2v-10.6h-0.6v10.6h-1.7v0.6h18.1v-0.6z"/><path class="b" d="m-14.2 386.6h-11v-28.5h11z"/><path class="a" d="m-16.6 339.3v16.3h-5.2v-23.5h-8.7l-12.6-10.2v-8.6h-1v7.8 11h-3.5v57.9h16.1 9.7 8.7v-33.6-0.8-16.3zm-20.6 31.1h-8v-2.3h8zm0-7.5h-8v-2.3h8zm0-7.5h-8v-2.4h8zm0-7.5h-8v-2.3h8zm0-7.5h-8v-2.3h8zm20.6 43h-5.1v-3.3h5.1zm0-6.9h-5.1v-3.3h5.1zm0-6.9h-5.1v-3.3h5.1zm0-6.9h-5.1v-3.3h5.1z"/><path class="a" d="m185.4 155.3h-9.5v-5.2h9.5z"/><path class="a" d="m185.4 175.3h-9.5v-15.7h9.5z"/><path class="a" d="m184.7 160.5h-8.1v-6.4h8.1z"/><path class="a" d="m244.2 155.3h-9.4v-5.2h9.4z"/><path class="a" d="m244.2 175.3h-9.4v-15.7h9.4z"/><path class="a" d="m243.5 160.5h-8.1v-6.4h8.1z"/><path class="a" d="m181.3 150.8v3.8h57.5v-3.8zm7.7 2.8h-1.7v-1.7h1.7zm4.4 0h-1.7v-1.7h1.7zm4.4 0h-1.7v-1.7h1.7zm4.4 0h-1.7v-1.7h1.7zm4.3 0h-1.7v-1.7h1.7zm4.4 0h-1.7v-1.7h1.7zm4.4 0h-1.7v-1.7h1.7zm4.4 0h-1.7v-1.7h1.7zm4.3 0h-1.7v-1.7h1.7zm4.4 0h-1.7v-1.7h1.7zm4.4 0h-1.7v-1.7h1.7z"/><path class="a" d="m180.7 153.8v16.4c0 0 8.3-10.8 29.4-10.8 21.1 0 28.7 10.8 28.7 10.8v-16.4z"/><path class="a" d="m183.7 154.6h-6.1v-7.5h6.1z"/><path class="a" d="m242.5 154.6h-6v-7.5h6z"/><path class="a" d="m76.8 242.6l-2.9 17.4h5.8z"/><path class="a" d="m72.9 259.3v23.6h7.8v-23.6zm3 9.4h-1.5v-6.8c0-0.4 0.3-0.8 0.8-0.8 0.4 0 0.7 0.4 0.7 0.8zm1.6 7.1h-1.5v-3.9c0-0.5 0.3-0.8 0.8-0.8 0.4 0 0.7 0.3 0.7 0.8zm1.6-7.2h-1.5v-6.8c0-0.4 0.3-0.8 0.8-0.8 0.4 0 0.7 0.4 0.7 0.8z"/><path class="a" d="m95.6 242.6l-2.9 17.4h5.8z"/><path class="a" d="m91.7 259.3v23.6h7.8v-23.6zm3.1 9.4h-1.6v-6.8c0-0.4 0.4-0.8 0.8-0.8 0.4 0 0.8 0.4 0.8 0.8zm1.6 7.1h-1.6v-3.9c0-0.5 0.4-0.8 0.8-0.8 0.4 0 0.8 0.3 0.8 0.8zm1.6-7.2h-1.6v-6.8c0-0.4 0.4-0.8 0.8-0.8 0.4 0 0.8 0.4 0.8 0.8z"/><path class="a" d="m78.4 260l7.8-7.8 7.8 7.8"/><path class="a" d="m79.9 259.6v23.3h12.8v-23.3zm9.3 15.3h-5.9v-2.3h5.9zm0-3.8h-5.9v-7c0-1.7 1.3-3 2.9-3 1.7 0 3 1.3 3 3z"/><path class="a" d="m86.2 244.8l-1.1 9.7h2.2z"/><path class="a" d="m272.9 348.2c-8 0-14.4 6.4-14.4 14.3h28.7c0-7.9-6.4-14.3-14.3-14.3z"/><path class="a" d="m276.2 351.5h-6.7v-6.6h6.7z"/><path class="a" d="m273.5 348h-1.3v-10h1.3z"/><path class="a" d="m252.7 361.1v28.9h12.1v-7.4c0-4.5 3.6-8.1 8.1-8.1 4.4 0 8 3.6 8 8.1v7.4h12.1v-28.9zm9.6 6.8h-3.8v-3.7h3.8zm6.2 0h-3.7v-3.7h3.7zm6.3 0h-3.8v-3.8h3.8zm6.2 0h-3.7v-3.7h3.7zm6.2 0h-3.7v-3.7h3.7z"/><path class="b" d="m181.8 387.8h-21.2v-39h21.2z"/><path class="a" d="m179.4 347.2v-22.6h-17v22.6h-3.2v42.8h23.5v-42.8zm0.7 35.8h-18.5v-1.3h18.5zm0-7.7h-18.5v-1.3h18.5zm0-7.7h-18.5v-1.3h18.5zm0-7.7h-18.5v-1.3h18.5zm0-7.7h-18.5v-1.3h18.5z"/><path class="a" d="m170.9 315.9l-7.8 12.2h15.6z"/><path class="a" d="m171.3 327h-0.8v-18.8h0.8z"/><path class="a" d="m-24.9 271.8h-2.7v-45.5h2.7z"/><path class="a" d="m-36.4 246.9l-8.7 36.1h17.5v-36.1zm-0.4 29.5h-4.7v-1.5h4.7zm1.4-5.7h-4.7v-1.4h4.7zm1.3-5.7h-4.7v-1.5h4.7zm1.4-5.6h-4.7v-1.5h4.7zm1.4-5.6h-4.7v-1.5h4.7z"/><path class="a" d="m-30.4 246.9v36.1h17.6v-36.1zm10.4 31.5h-5v-1.6h2.2v-24.7h-2.2v-1.6h5z"/><path class="a" d="m140.5 175.3h19.3v-8h-19.3z"/><path class="a" d="m125.3 175.3h19.3v-11.7l-19.3 1.3z"/><path class="a" d="m117.4 175.3h19.3v-8.7l-19.3 1.5z"/><path class="a" d="m274.1 175.3h17.6v-8.3l-17.6 0.9z"/><path class="a" d="m266.9 175.3h17.6v-6.1l-17.6 1z"/><path class="a" d="m150.2 175.3h19.3v-8.7l-19.3-2.1z"/><path class="a" d="m162.6 175.3h19.3v-8.4l-19.3 4z"/><path class="a" d="m111.8 175.3h8.6v-6h-8.6z"/><path class="a" d="m220.6 175.3h-18.3v-5.5h18.3z"/><path class="a" d="m235.1 175.3h-18.3v-6.5l18.3 0.7z"/><path class="a" d="m242.6 175.3h-18.3v-4.1l18.3 0.7z"/><path class="a" d="m211.5 175.3h-18.3v-7.2l18.3-1.7z"/><path class="a" d="m199.7 175.3h-18.3v-5.8l18.3 2.8z"/><path class="a" d="m248 175.3h-8.2v-4.1h8.2z"/><path class="a" d="m264.9 175.3h-18.3v-4.1l18.3 0.7z"/><path class="a" d="m270.3 175.3h-8.2v-4.1h8.2z"/><path class="a" d="m24.1 175.3h-25.4v-7.2h25.4z"/><path class="a" d="m44.1 175.3h-25.4v-12.4l25.4-0.7z"/><path class="a" d="m54.6 175.3h-25.5v-7.8l25.5 1.3z"/><path class="a" d="m11.3 175.3h-25.3v-9.1l25.3 1z"/><path class="a" d="m-5 175.3h-25.4v-7.1l25.4 3.1z"/><path class="a" d="m60.9 175.3h25.4v-10.6l-25.4 1.2z"/><path class="a" d="m50.5 175.3h25.3v-7.8l-25.3 1.3z"/><path class="a" d="m209.5 282.9h-9.8v-6.5h9.8z"/><path class="a" d="m175.4 282.9h-9.8v-6.5h9.8z"/><path class="a" d="m182.6 282.9h-7.7v-8.1h7.7z"/><path class="a" d="m194.8 282.9h-12.2v-6.3h12.2z"/><path class="a" d="m219.2 282.9h-12.7v-3.8h12.7z"/><path class="a" d="m227.4 282.9h-12.7v-6.1h12.7z"/><path class="a" d="m231.9 282.9h-12.7v-8h12.7z"/><path class="a" d="m245.6 282.9h-21.8v-11.9l21.8 1.4z"/><path class="a" d="m-4.5 283h-9.9v-7.5h9.9z"/><path class="a" d="m16.2 283h-9.9v-5.8h9.9z"/><path class="a" d="m7.5 283h-12.8v-9.4l12.8 1.6z"/><path class="a" d="m61.7 283h-33.3v-10.4l33.3 1.2z"/><path class="a" d="m36.3 283h-22.1v-10.8l22.1 4.8z"/><path class="a" d="m142.5 282.9h17.4v-8.1h-17.4z"/><path class="a" d="m128.7 282.9h17.4v-11.8l-17.4 1.2z"/><path class="a" d="m121.6 282.9h17.4v-8.8l-17.4 1.5z"/><path class="a" d="m151.2 282.9h17.4v-8.8l-17.4-2.1z"/><path class="a" d="m116.5 282.9h7.8v-6.1h-7.8z"/><path class="a" d="m113.7 282.9h12.8v-5.9h-12.8z"/><path class="a" d="m98.4 282.9h12.8v-6.3l-12.8 1z"/><path class="a" d="m94.7 282.9h5.7v-4.4h-5.7z"/><path class="a" d="m108.8 282.9h10.1v-10h-10.1z"/><path class="a" d="m-59 390h-9.7v-9.9h9.7z"/><path class="a" d="m-49.4 390h-12.6v-5.9h12.6z"/><path class="a" d="m-41.2 390h-12.6v-9.4h12.6z"/><path class="a" d="m-36.7 390h-12.7v-12.2h12.7z"/><path class="a" d="m-23.2 390h-21.6v-18.2l21.6 2.1z"/><path class="a" d="m256 390h-13.1v-4.8h13.1z"/><path class="a" d="m272.9 390h-9.8v-3.7h9.8z"/><path class="a" d="m283.7 390h-12.7v-6.1l12.7 1.1z"/><path class="a" d="m303.6 390h-21.7v-6.9l21.7 3z"/><path class="a" d="m81.1 390h-38v-3.7l38-4.4z"/><path class="a" d="m109.5 390h-13.7v-5.9h13.7z"/><path class="a" d="m102.6 390h-13.7v-7.4l13.7 0.8z"/><path class="a" d="m93.8 390h-13.8v-4.3l13.8 1.9z"/><path class="a" d="m-2.5 390h-13.1v-11.3l13.1 2z"/><path class="a" d="m145.2 390h9.7v-9h-9.7z"/><path class="a" d="m124.9 390h9.7v-6.9h-9.7z"/><path class="a" d="m133.4 390h12.6v-16.5l-12.6 7.2z"/><path class="a" d="m192.6 390h9.7v-9h-9.7z"/><path class="a" d="m172.3 390h9.7v-6.9h-9.7z"/><path class="a" d="m180.8 390h12.6v-16.5l-12.6 7.2z"/><path class="a" d="m222.7 390h21.6v-9.3h-21.6z"/><path class="a" d="m217.3 390h13.6v-6.6l-13.6-2.7z"/><path class="a" d="m199.6 390h12.6v-14.6h-12.6z"/><path class="a" d="m204.7 390h21.7v-11.3l-21.7 1z"/></svg>