<?xml version="1.0" encoding="utf-8"?>
<svg viewBox="84.322 74.792 203.826 112.737" xmlns="http://www.w3.org/2000/svg">
  <defs>
    <clipPath id="e21b3da57e">
      <path d="M 87.203125 76 L 287.453125 76 L 287.453125 185 L 87.203125 185 Z M 87.203125 76 " clip-rule="nonzero"/>
    </clipPath>
  </defs>
  <path fill="#2036b3" d="M 218.335938 146.351562 C 219.730469 143.9375 219.855469 140.851562 218.335938 138.226562 L 211.277344 125.996094 L 204.214844 138.226562 C 202.695312 140.808594 202.820312 143.9375 204.214844 146.351562 C 204.890625 147.535156 205.90625 148.59375 207.21875 149.3125 C 208.484375 150.03125 209.878906 150.414062 211.277344 150.371094 C 212.671875 150.371094 214.066406 150.03125 215.332031 149.3125 C 216.644531 148.59375 217.660156 147.578125 218.335938 146.351562 Z M 156.320312 114.953125 C 154.925781 117.363281 154.800781 120.453125 156.320312 123.078125 L 163.378906 135.304688 L 170.441406 123.078125 C 171.917969 120.496094 171.835938 117.363281 170.441406 114.953125 C 169.761719 113.765625 168.75 112.707031 167.4375 111.988281 C 166.171875 111.269531 164.773438 110.890625 163.378906 110.929688 C 161.984375 110.929688 160.589844 111.269531 159.320312 111.988281 C 158.011719 112.707031 156.996094 113.722656 156.320312 114.953125 Z M 156.320312 114.953125 " fill-opacity="1" fill-rule="evenodd" transform="matrix(1, 0, 0, 1, 3.552713678800501e-15, 3.552713678800501e-15)"/>
  <g clip-path="url(#e21b3da57e)" transform="matrix(1, 0, 0, 1, 3.552713678800501e-15, 3.552713678800501e-15)">
    <path fill="#2f81ff" d="M 207.089844 133.359375 L 211.316406 126.039062 L 205.609375 116.136719 L 205.609375 116.09375 L 192.378906 93.199219 C 189.421875 88.078125 185.277344 83.804688 180.164062 80.84375 L 179.699219 80.589844 C 174.710938 77.796875 169.085938 76.398438 163.339844 76.398438 C 157.589844 76.398438 151.964844 77.796875 146.9375 80.589844 L 146.554688 80.800781 C 141.355469 83.804688 137.253906 88.078125 134.296875 93.199219 L 121.066406 116.09375 L 121.066406 116.136719 L 102.378906 148.550781 C 100.140625 152.445312 101.492188 157.394531 105.382812 159.640625 C 109.269531 161.882812 114.21875 160.527344 116.457031 156.632812 L 135.351562 123.878906 L 148.332031 101.367188 C 149.851562 98.703125 151.964844 96.457031 154.628906 94.933594 L 154.925781 94.765625 C 157.460938 93.367188 160.378906 92.734375 163.296875 92.734375 C 166.253906 92.734375 169.128906 93.367188 171.707031 94.765625 L 171.960938 94.894531 C 174.667969 96.457031 176.78125 98.703125 178.300781 101.367188 L 191.28125 123.878906 L 204.046875 145.96875 C 202.863281 143.601562 202.820312 140.722656 204.257812 138.269531 Z M 167.566406 127.941406 L 170.398438 123.035156 C 171.835938 120.578125 171.792969 117.660156 170.609375 115.332031 L 183.375 137.421875 L 196.351562 159.933594 C 197.875 162.601562 199.988281 164.84375 202.695312 166.410156 L 202.949219 166.535156 C 205.527344 167.976562 208.402344 168.566406 211.359375 168.566406 C 214.320312 168.566406 217.195312 167.933594 219.730469 166.535156 L 220.027344 166.367188 C 222.6875 164.84375 224.804688 162.601562 226.324219 159.933594 L 239.300781 137.421875 L 258.199219 104.667969 C 260.4375 100.773438 265.386719 99.421875 269.273438 101.664062 C 273.164062 103.90625 274.515625 108.859375 272.277344 112.75 L 253.589844 145.167969 L 253.589844 145.207031 L 240.402344 168.101562 C 237.441406 173.222656 233.300781 177.496094 228.144531 180.5 L 227.761719 180.714844 C 222.730469 183.546875 217.109375 184.902344 211.359375 184.902344 C 205.609375 184.902344 199.988281 183.507812 195 180.714844 L 194.535156 180.460938 C 189.421875 177.496094 185.277344 173.222656 182.320312 168.101562 L 169.128906 145.207031 L 169.128906 145.167969 L 163.421875 135.265625 Z M 271.132812 84.523438 C 271.132812 88.96875 274.726562 92.566406 279.167969 92.566406 C 283.605469 92.566406 287.199219 88.96875 287.199219 84.523438 C 287.199219 80.082031 283.605469 76.484375 279.167969 76.484375 C 274.726562 76.441406 271.132812 80.082031 271.132812 84.523438 Z M 103.523438 176.777344 C 103.523438 172.335938 99.929688 168.738281 95.488281 168.738281 C 91.050781 168.738281 87.457031 172.335938 87.457031 176.777344 C 87.457031 181.222656 91.050781 184.816406 95.488281 184.816406 C 99.929688 184.816406 103.523438 181.222656 103.523438 176.777344 Z M 103.523438 176.777344 " fill-opacity="1" fill-rule="evenodd"/>
  </g>
  <path fill="#fe4eee" d="M 163.339844 135.265625 L 156.277344 123.035156 C 154.757812 120.453125 154.882812 117.320312 156.277344 114.910156 L 133.367188 154.601562 L 122.925781 172.800781 C 120.683594 176.691406 121.996094 181.6875 125.882812 183.929688 C 129.773438 186.171875 134.761719 184.859375 137.003906 180.96875 L 147.402344 162.980469 Z M 211.316406 126.039062 L 218.378906 138.269531 C 219.898438 140.851562 219.773438 143.980469 218.378906 146.394531 L 241.289062 106.699219 L 251.773438 88.542969 C 254.015625 84.652344 252.703125 79.65625 248.8125 77.414062 C 244.925781 75.171875 239.9375 76.484375 237.695312 80.378906 L 227.296875 98.363281 Z M 211.316406 126.039062 " fill-opacity="1" fill-rule="evenodd" transform="matrix(1, 0, 0, 1, 3.552713678800501e-15, 3.552713678800501e-15)"/>
</svg>